<svg xmlns="http://www.w3.org/2000/svg" width="492" height="209"><path d="M297.583 194.08h9.953l-20.697-39.912h-9.873l-20.399 39.912h9.833l3.481-7.599h24.116l3.586 7.599zm-24.655-14.249l8.832-19.276 9.098 19.276h-17.93z"/><path fill-rule="evenodd" clip-rule="evenodd" fill="#EE3124" d="M26.778 81.248v-25.441c15.063-6.286 30.45-11.95 46.13-16.959v9.848c12.342-4.023 24.87-7.636 37.57-10.816v-9.634c13.355-3.28 26.893-6.095 40.596-8.423v9.476c12.391-2.146 24.918-3.884 37.57-5.208v-9.377c13.401-1.377 26.938-2.293 40.595-2.731v9.329c6.237-.205 12.5-.309 18.787-.309 6.285 0 12.548.104 18.784.309v-9.329c13.658.438 27.196 1.354 40.596 2.731v9.377c12.652 1.324 25.182 3.063 37.571 5.208v-9.476c13.703 2.328 27.241 5.143 40.596 8.423v9.634c12.699 3.181 25.228 6.793 37.569 10.816v-9.848c15.68 5.009 31.068 10.673 46.13 16.961v25.439c-67.739-29.65-142.572-46.1-221.246-46.1-78.676 0-153.507 16.45-221.248 46.1zm221.248-34.044c-78.833 0-153.722 16.887-221.248 47.238v39.844h46.13v-23.012c0-10.374 8.411-18.785 18.785-18.785 10.375 0 18.785 8.411 18.785 18.785v23.012h40.596v-31.895c0-10.374 8.41-18.786 18.786-18.786 10.375 0 18.784 8.412 18.784 18.786v31.895h40.595v-36.77c0-10.374 8.412-18.785 18.787-18.785 10.374 0 18.784 8.411 18.784 18.785v36.771h40.596v-31.895c0-10.374 8.41-18.786 18.785-18.786s18.786 8.412 18.786 18.786v31.895h40.596v-23.012c0-10.374 8.41-18.785 18.785-18.785s18.784 8.411 18.784 18.785v23.012h46.13v-39.844c-67.526-30.352-142.414-47.239-221.246-47.239z"/><path d="M116.384 179.582h6.769c6.1 0 6.096-5.738 6.096-5.738v-12.32s0-5.586-6.708-5.586h-31.941v38.143h8.133v-14.649h7.887l14.647 14.649h11.593l-16.476-14.499zm2.441-17.086c2.746 0 2.746 3.359 2.746 3.359v4.268c0 3.209-3.049 3.057-3.049 3.057h-19.79v-10.684h20.093z"/><polygon points="148.855,194.08 186.556,194.08 186.556,187.261 157.223,187.261 157.223,177.297 174.345,177.297 174.345,171.041 157.223,171.041 157.223,162.553 186.245,162.553 186.245,155.938 148.752,155.938"/><polygon points="381.891,194.08 419.368,194.08 419.368,187.612 390.038,187.612 390.038,177.448 407.165,177.448 407.165,171.198 390.038,171.198 390.038,162.604 419.068,162.604 419.068,156.168 381.618,156.168"/><polygon points="203.551,194.08 203.551,155.938 209.604,155.938 237.134,181.36 237.134,155.938 243.613,155.938 243.613,194.08 238.211,194.08 209.977,168.047 209.977,194.08"/><polygon points="318.449,198.849 325.359,198.954 325.359,163.9 359.781,198.949 365.778,198.849 365.778,150.673 359.273,150.673 359.273,185.48 325.335,150.673 318.476,150.673"/><polygon points="429.233,156.09 470.43,156.09 470.43,162.454 453.902,162.454 453.902,194.08 445.309,194.08 445.309,162.454 429.235,162.454"/><path d="M480.136 159.754c.625-.26.929-.691.929-1.318 0-.434-.156-.793-.465-1.065-.311-.278-.795-.419-1.44-.419h-2.358v5.094h.985v-2.111h1.359l.848 2.111h1.033l-.951-2.266.06-.026zm-1.137-.52h-1.213v-1.59h1.296c.636 0 .958.262.958.779 0 .538-.35.811-1.041.811z"/><path d="M482.003 156.34c-.863-.872-1.916-1.314-3.131-1.314-1.236 0-2.304.442-3.172 1.314-.869.873-1.311 1.936-1.311 3.155 0 1.224.443 2.286 1.314 3.159.872.875 1.934 1.318 3.154 1.318 1.216 0 2.271-.443 3.137-1.318.869-.875 1.31-1.936 1.31-3.152.001-1.225-.438-2.289-1.301-3.162zm-.491 5.898c-.74.754-1.635 1.135-2.659 1.135-1.032 0-1.931-.381-2.67-1.135-.738-.752-1.113-1.676-1.113-2.743 0-1.058.373-1.978 1.109-2.733.737-.756 1.642-1.139 2.688-1.139 1.025 0 1.917.384 2.652 1.143.732.758 1.104 1.676 1.104 2.729 0 1.068-.374 1.991-1.111 2.743z"/><path d="M69.603 199.354h9.866l-24.666-49.332h-8.597l-24.36 49.332 10.128-.006 4.774-10.238h27.916l4.939 10.244zm-29.824-16.745l10.694-22.931 11.057 22.931h-21.751z"/></svg>